<?xml version="1.0" standalone="no"?>
<!DOCTYPE svg PUBLIC "-//W3C//DTD SVG 20010904//EN"
 "http://www.w3.org/TR/2001/REC-SVG-20010904/DTD/svg10.dtd">
<svg version="1.0" xmlns="http://www.w3.org/2000/svg"
 width="300.000000pt" height="75.000000pt" viewBox="0 0 300.000000 75.000000"
 preserveAspectRatio="xMidYMid meet">

<g transform="translate(0.000000,75.000000) scale(0.100000,-0.100000)"
fill="#000000" stroke="none">
<path d="M248 663 l-96 -25 5 -56 c12 -147 56 -258 121 -312 56 -46 83 -52
131 -28 92 45 148 159 166 334 l6 61 -105 27 c-58 14 -111 26 -118 25 -7 0
-57 -12 -110 -26z m32 -23 c0 -5 -4 -10 -10 -10 -5 0 -10 5 -10 10 0 6 5 10
10 10 6 0 10 -4 10 -10z m190 0 c0 -5 -4 -10 -10 -10 -5 0 -10 5 -10 10 0 6 5
10 10 10 6 0 10 -4 10 -10z m-112 -24 c-7 -8 -15 -12 -17 -11 -5 6 10 25 20
25 5 0 4 -6 -3 -14z m58 -37 c3 -6 -5 -3 -20 6 -14 10 -26 19 -26 22 0 7 39
-17 46 -28z m-69 -39 c-6 -11 -13 -17 -16 -15 -2 3 1 11 7 18 9 10 8 17 -1 27
-10 12 -9 12 5 1 14 -10 15 -16 5 -31z m63 -10 c5 8 10 11 9 5 0 -5 -11 -23
-24 -40 l-25 -30 -22 25 -23 24 23 -19 c19 -16 25 -17 32 -5 4 7 4 25 -1 39
-9 25 -8 25 6 6 14 -17 17 -18 25 -5z m30 -95 c0 -21 5 -25 30 -25 17 0 30 -4
30 -10 0 -5 -7 -7 -16 -3 -14 5 -16 0 -12 -35 3 -34 0 -42 -13 -42 -14 0 -16
7 -12 41 6 40 5 41 -18 34 -21 -7 -22 -6 -10 8 14 18 9 47 -10 47 -7 0 -10
-22 -7 -65 l3 -65 -34 0 c-27 0 -32 3 -23 12 13 13 17 118 5 118 -16 0 -34
-18 -33 -31 1 -8 2 -34 1 -59 l-2 -45 -30 35 -31 35 4 -32 c3 -20 0 -33 -6
-33 -7 0 -11 19 -11 45 0 51 8 55 43 23 l24 -23 -3 25 c-6 68 -5 70 66 70 63
0 65 -1 65 -25z"/>
<path d="M1285 660 c-4 -7 -18 -9 -31 -6 -42 11 -64 -9 -64 -59 0 -53 26 -75
66 -56 20 9 24 18 24 54 0 24 5 48 12 55 6 6 9 14 6 17 -3 4 -9 1 -13 -5z
m-26 -24 c17 -20 10 -77 -11 -89 -24 -16 -48 8 -48 47 0 49 34 73 59 42z"/>
<path d="M863 653 c13 -4 17 -15 17 -58 0 -30 5 -57 10 -60 6 -4 10 16 10 54
0 54 2 60 23 64 12 2 0 4 -28 4 -27 1 -42 -1 -32 -4z"/>
<path d="M961 593 c1 -46 3 -58 8 -39 9 41 27 43 51 4 11 -18 20 -26 20 -17 0
8 -5 20 -12 27 -9 9 -9 15 0 24 29 29 2 68 -47 68 -19 0 -21 -6 -20 -67z m58
48 c21 -13 5 -41 -24 -41 -18 0 -25 5 -25 18 0 31 21 41 49 23z"/>
<path d="M1074 606 c1 -44 5 -62 19 -70 27 -17 51 4 55 49 2 24 11 45 25 56
12 10 17 18 10 19 -6 0 -14 -6 -16 -12 -4 -10 -8 -9 -16 2 -7 11 -11 -1 -13
-45 -3 -56 -4 -60 -28 -60 -23 0 -25 4 -31 60 l-6 60 1 -59z"/>
<path d="M1317 654 c-11 -11 -8 -112 3 -119 6 -4 10 13 11 42 l0 48 17 -25 c9
-13 27 -36 39 -50 l22 -25 1 68 c0 43 -4 66 -10 62 -5 -3 -10 -25 -10 -48 l0
-42 -26 40 c-35 52 -39 57 -47 49z"/>
<path d="M1458 649 c-23 -13 -24 -81 -2 -103 28 -29 74 -16 74 20 0 19 -5 24
-22 23 -18 -1 -19 -2 -5 -6 24 -6 17 -37 -9 -41 -28 -4 -46 20 -42 59 4 44 30
59 57 35 12 -11 21 -14 21 -8 0 11 -31 32 -47 32 -4 0 -16 -5 -25 -11z"/>
<path d="M1610 631 c0 -16 -6 -32 -12 -34 -10 -4 -10 -6 0 -6 7 -1 12 -14 12
-31 0 -25 4 -30 23 -30 20 1 20 2 5 11 -21 12 -24 45 -5 52 10 4 10 6 0 6 -19
1 -16 39 5 50 15 9 15 10 -5 11 -19 0 -23 -5 -23 -29z"/>
<path d="M1742 611 c-23 -55 -29 -90 -11 -58 5 9 21 17 34 17 13 0 29 -8 34
-17 20 -34 11 10 -13 61 l-22 50 -22 -53z m41 -11 c4 -16 0 -20 -20 -20 -13 0
-22 3 -20 8 2 4 7 15 10 25 8 22 22 15 30 -13z"/>
<path d="M1840 595 c0 -42 4 -64 10 -60 6 3 10 30 10 60 0 30 -4 57 -10 60 -6
4 -10 -18 -10 -60z"/>
<path d="M1938 654 c-12 -11 -10 -112 2 -119 6 -4 10 7 10 24 0 28 3 31 30 31
25 0 30 -4 30 -24 0 -14 5 -28 10 -31 6 -4 10 18 10 60 0 42 -4 64 -10 60 -5
-3 -10 -17 -10 -31 0 -20 -5 -24 -29 -24 -26 0 -30 4 -33 31 -2 17 -6 27 -10
23z"/>
<path d="M2075 646 c-40 -29 -16 -116 31 -116 40 0 60 83 28 114 -19 20 -35
20 -59 2z m54 -10 c17 -20 10 -77 -11 -89 -24 -16 -48 8 -48 47 0 49 34 73 59
42z"/>
<path d="M2198 649 c-28 -16 -25 -95 3 -110 24 -13 69 2 69 22 0 7 -9 4 -21
-7 -29 -26 -54 -8 -54 41 0 49 25 67 54 41 12 -11 21 -14 21 -8 0 11 -31 32
-47 32 -4 0 -16 -5 -25 -11z"/>
<path d="M1668 639 c15 -17 16 -71 0 -87 -9 -9 -9 -12 0 -12 34 0 35 98 1 108
-11 4 -12 2 -1 -9z"/>
<path d="M1480 472 c0 -4 10 -9 22 -9 18 -2 20 0 8 7 -18 12 -30 13 -30 2z"/>
<path d="M2016 454 c-4 -10 -1 -14 6 -12 15 5 23 28 10 28 -5 0 -13 -7 -16
-16z"/>
<path d="M2588 438 c12 -12 24 -19 28 -15 10 10 -16 37 -34 37 -13 0 -12 -4 6
-22z"/>
<path d="M1479 433 c-13 -16 -12 -17 4 -4 14 11 20 11 35 0 15 -13 16 -12 3 4
-7 9 -17 17 -21 17 -4 0 -14 -8 -21 -17z"/>
<path d="M1950 435 c-14 -17 0 -21 17 -4 8 8 13 8 17 0 4 -6 12 -11 18 -11 7
0 6 6 -2 15 -7 8 -18 15 -25 15 -7 0 -18 -7 -25 -15z"/>
<path d="M840 320 c0 -83 1 -90 20 -90 18 0 20 7 21 58 l1 57 26 -57 c18 -39
32 -58 44 -58 16 0 18 10 18 90 0 72 -3 90 -15 90 -10 0 -15 -15 -17 -57 l-3
-58 -28 58 c-19 41 -32 57 -47 57 -19 0 -20 -6 -20 -90z"/>
<path d="M1019 393 c-8 -9 -14 -39 -14 -73 0 -70 15 -90 64 -90 46 0 61 14 61
57 0 30 -3 33 -30 33 -16 0 -30 -4 -30 -10 0 -5 5 -10 10 -10 12 0 13 -37 1
-44 -5 -4 -16 -3 -25 0 -24 9 -23 119 2 129 11 4 22 -1 31 -14 7 -12 17 -21
22 -21 13 0 11 34 -3 48 -18 18 -73 15 -89 -5z"/>
<path d="M1150 348 c0 -82 16 -112 58 -116 53 -5 62 10 62 99 0 63 -3 79 -15
79 -11 0 -15 -18 -17 -77 -3 -70 -5 -78 -23 -78 -18 0 -20 8 -23 78 -3 69 -5
77 -22 77 -18 0 -20 -7 -20 -62z"/>
<path d="M1305 388 c4 -12 14 -35 21 -50 8 -15 14 -45 14 -68 0 -33 3 -40 20
-40 16 0 20 7 20 38 0 20 9 57 20 81 24 52 25 61 6 61 -8 0 -20 -16 -27 -35
-16 -43 -24 -44 -35 -3 -6 19 -17 34 -28 36 -15 3 -17 0 -11 -20z"/>
<path d="M1450 320 l0 -90 50 0 c38 0 50 4 50 15 0 10 -11 15 -35 15 -31 0
-35 3 -35 25 0 21 5 25 30 25 20 0 30 5 30 15 0 10 -10 15 -30 15 -23 0 -30 4
-30 20 0 16 7 20 35 20 24 0 35 5 35 15 0 11 -12 15 -50 15 l-50 0 0 -90z"/>
<path d="M1570 320 c0 -83 1 -90 20 -90 18 0 20 7 21 58 l1 57 26 -57 c18 -39
32 -58 44 -58 16 0 18 10 18 90 0 72 -3 90 -15 90 -10 0 -15 -15 -17 -57 l-3
-58 -28 58 c-19 41 -32 57 -47 57 -19 0 -20 -6 -20 -90z"/>
<path d="M1780 395 c0 -8 9 -15 20 -15 18 0 20 -7 20 -75 0 -68 2 -75 20 -75
18 0 20 7 20 75 0 68 2 75 20 75 11 0 20 7 20 15 0 12 -13 15 -60 15 -47 0
-60 -3 -60 -15z"/>
<path d="M1956 398 c-2 -7 -16 -48 -29 -90 -24 -73 -24 -78 -7 -78 10 0 20 9
23 20 3 14 14 20 32 20 18 0 29 -6 32 -20 3 -11 13 -20 23 -20 16 0 15 8 -10
88 -18 56 -34 88 -44 90 -9 2 -18 -2 -20 -10z m33 -85 c1 -7 -6 -13 -14 -13
-17 0 -18 4 -8 39 6 23 7 23 14 5 4 -10 8 -25 8 -31z"/>
<path d="M2050 395 c0 -8 9 -15 20 -15 18 0 20 -7 20 -75 0 -68 2 -75 20 -75
18 0 20 7 20 75 0 68 2 75 20 75 11 0 20 7 20 15 0 12 -13 15 -60 15 -47 0
-60 -3 -60 -15z"/>
<path d="M2232 398 c3 -7 14 -14 26 -16 20 -3 22 -9 22 -78 0 -59 3 -74 15
-74 12 0 15 15 15 75 0 73 1 75 25 75 16 0 25 6 25 15 0 12 -14 15 -66 15 -48
0 -65 -3 -62 -12z"/>
<path d="M2380 320 c0 -83 1 -90 20 -90 17 0 20 7 20 40 0 36 3 40 25 40 23 0
25 -4 25 -40 0 -33 3 -40 20 -40 19 0 20 7 20 90 0 83 -1 90 -20 90 -16 0 -20
-7 -20 -35 0 -31 -3 -35 -25 -35 -22 0 -25 4 -25 35 0 28 -4 35 -20 35 -19 0
-20 -7 -20 -90z"/>
<path d="M2586 398 c-2 -7 -16 -48 -29 -90 -24 -73 -24 -78 -7 -78 10 0 20 9
23 20 3 14 14 20 32 20 18 0 29 -6 32 -20 3 -11 13 -20 23 -20 16 0 15 8 -10
88 -18 56 -34 88 -44 90 -9 2 -18 -2 -20 -10z m33 -85 c1 -7 -6 -13 -14 -13
-17 0 -18 4 -8 39 6 23 7 23 14 5 4 -10 8 -25 8 -31z"/>
<path d="M2700 320 c0 -72 3 -90 15 -90 10 0 15 15 17 58 l3 57 28 -57 c20
-41 34 -58 48 -58 17 0 19 8 19 90 0 83 -1 90 -20 90 -18 0 -20 -7 -21 -57
l-1 -58 -26 58 c-18 38 -32 57 -44 57 -16 0 -18 -10 -18 -90z"/>
<path d="M2860 320 c0 -73 3 -90 15 -90 11 0 15 11 15 40 0 38 2 40 30 40 28
0 30 -2 30 -40 0 -33 3 -40 20 -40 19 0 20 7 20 90 0 83 -1 90 -20 90 -16 0
-20 -7 -20 -35 0 -32 -2 -35 -30 -35 -28 0 -30 3 -30 35 0 24 -5 35 -15 35
-12 0 -15 -17 -15 -90z"/>
<path d="M163 214 c-3 -8 -1 -20 4 -25 7 -7 11 -2 11 15 0 29 -6 33 -15 10z"/>
<path d="M551 221 c-7 -5 -10 -14 -7 -20 11 -17 22 -13 22 9 0 11 0 20 -1 20
0 0 -6 -4 -14 -9z"/>
<path d="M214 194 c3 -9 6 -18 6 -20 0 -11 19 -2 24 12 3 8 2 12 -4 9 -6 -3
-10 -1 -10 4 0 6 -5 11 -11 11 -6 0 -8 -7 -5 -16z"/>
<path d="M496 201 c-3 -5 1 -14 9 -21 11 -9 14 -8 12 9 -1 22 -12 28 -21 12z"/>
<path d="M257 184 c-4 -4 -7 -14 -7 -23 0 -11 3 -12 11 -4 6 6 10 16 7 23 -2
6 -7 8 -11 4z"/>
<path d="M460 183 c0 -14 19 -38 25 -32 8 8 -5 39 -16 39 -5 0 -9 -3 -9 -7z"/>
<path d="M291 161 c-1 -20 1 -21 14 -11 16 14 21 25 6 16 -5 -4 -12 0 -14 6
-3 7 -6 2 -6 -11z"/>
<path d="M330 150 c0 -11 6 -20 14 -20 9 0 12 7 9 20 -3 11 -9 20 -14 20 -5 0
-9 -9 -9 -20z"/>
<path d="M380 152 c0 -10 8 -18 19 -19 14 -1 17 3 14 18 -7 24 -33 25 -33 1z"/>
<path d="M434 155 c21 -16 32 -13 21 4 -3 6 -14 11 -23 11 -15 -1 -15 -2 2
-15z"/>
<path d="M849 73 c5 -37 6 -37 9 -8 2 16 9 33 15 37 8 5 4 8 -8 8 -18 0 -20
-5 -16 -37z"/>
<path d="M1338 103 c6 -2 18 -2 25 0 6 3 1 5 -13 5 -14 0 -19 -2 -12 -5z"/>
<path d="M1420 96 c0 -8 -8 -17 -17 -19 -16 -4 -16 -5 -1 -6 9 0 19 -9 21 -18
3 -10 5 -1 6 20 0 20 -1 37 -4 37 -3 0 -5 -6 -5 -14z"/>
<path d="M1899 73 c5 -37 6 -37 9 -8 2 16 9 33 15 37 8 5 4 8 -8 8 -18 0 -20
-5 -16 -37z"/>
<path d="M2140 75 c0 -45 7 -45 12 0 2 19 0 35 -4 35 -4 0 -8 -16 -8 -35z"/>
<path d="M2448 103 c6 -2 18 -2 25 0 6 3 1 5 -13 5 -14 0 -19 -2 -12 -5z"/>
<path d="M2908 103 c7 -3 16 -2 19 1 4 3 -2 6 -13 5 -11 0 -14 -3 -6 -6z"/>
<path d="M891 70 c1 -19 3 -27 6 -17 2 9 12 17 21 18 14 0 14 2 2 6 -8 3 -18
11 -22 17 -4 6 -7 -5 -7 -24z"/>
<path d="M952 75 c0 -16 2 -22 5 -12 2 9 2 23 0 30 -3 6 -5 -1 -5 -18z"/>
<path d="M982 75 c0 -16 2 -22 5 -12 2 9 2 23 0 30 -3 6 -5 -1 -5 -18z"/>
<path d="M1012 75 c0 -16 2 -22 5 -12 2 9 2 23 0 30 -3 6 -5 -1 -5 -18z"/>
<path d="M1091 70 c1 -19 3 -27 6 -17 2 9 12 17 21 18 14 0 14 2 2 6 -8 3 -18
11 -22 17 -4 6 -7 -5 -7 -24z"/>
<path d="M1152 75 c0 -16 2 -22 5 -12 2 9 2 23 0 30 -3 6 -5 -1 -5 -18z"/>
<path d="M1212 75 c0 -16 2 -22 5 -12 2 9 2 23 0 30 -3 6 -5 -1 -5 -18z"/>
<path d="M1482 80 c0 -14 2 -19 5 -12 2 6 2 18 0 25 -3 6 -5 1 -5 -13z"/>
<path d="M1582 70 c0 -19 2 -27 5 -17 2 9 11 17 18 17 7 0 16 -8 18 -17 3 -10
5 -2 5 17 0 19 -2 29 -5 23 -2 -7 -11 -13 -18 -13 -7 0 -16 6 -18 13 -3 6 -5
-4 -5 -23z"/>
<path d="M1700 70 c0 -39 6 -39 12 0 3 16 1 30 -4 30 -4 0 -8 -13 -8 -30z"/>
<path d="M1742 70 c0 -19 2 -27 5 -17 2 9 2 25 0 35 -3 9 -5 1 -5 -18z"/>
<path d="M1762 70 c0 -19 2 -27 5 -17 2 9 11 17 18 17 7 0 16 -8 18 -17 3 -10
5 -2 5 17 0 19 -2 29 -5 23 -2 -7 -11 -13 -18 -13 -7 0 -16 6 -18 13 -3 6 -5
-4 -5 -23z"/>
<path d="M1942 70 c0 -19 2 -27 5 -17 2 9 11 17 18 17 7 0 16 -8 18 -17 3 -10
5 -2 5 17 0 19 -2 29 -5 23 -2 -7 -11 -13 -18 -13 -7 0 -16 6 -18 13 -3 6 -5
-4 -5 -23z"/>
<path d="M2000 76 c0 -14 4 -27 8 -30 5 -3 6 8 4 25 -5 35 -12 38 -12 5z"/>
<path d="M2169 72 c-3 -20 -2 -29 4 -23 5 5 7 19 5 32 -3 20 -5 19 -9 -9z"/>
<path d="M2250 70 c0 -39 6 -39 12 0 3 16 1 30 -4 30 -4 0 -8 -13 -8 -30z"/>
<path d="M2292 70 c0 -19 2 -27 5 -17 2 9 2 25 0 35 -3 9 -5 1 -5 -18z"/>
<path d="M2312 70 c0 -19 2 -27 5 -17 2 9 11 17 18 17 7 0 16 -8 18 -17 3 -10
5 -2 5 17 0 19 -2 29 -5 23 -2 -7 -11 -13 -18 -13 -7 0 -16 6 -18 13 -3 6 -5
-4 -5 -23z"/>
<path d="M2492 70 c0 -19 2 -27 5 -17 2 9 11 17 18 17 7 0 16 -8 18 -17 3 -10
5 -2 5 17 0 19 -2 29 -5 23 -2 -7 -11 -13 -18 -13 -7 0 -16 6 -18 13 -3 6 -5
-4 -5 -23z"/>
<path d="M2592 80 c0 -14 2 -19 5 -12 2 6 2 18 0 25 -3 6 -5 1 -5 -13z"/>
<path d="M2690 70 c0 -39 6 -39 12 0 3 16 1 30 -4 30 -4 0 -8 -13 -8 -30z"/>
<path d="M2732 70 c0 -19 2 -27 5 -17 2 9 2 25 0 35 -3 9 -5 1 -5 -18z"/>
<path d="M2812 70 c0 -19 2 -27 5 -17 2 9 11 17 18 17 7 0 16 -8 18 -17 3 -10
5 -2 5 17 0 19 -2 29 -5 23 -2 -7 -11 -13 -18 -13 -7 0 -16 6 -18 13 -3 6 -5
-4 -5 -23z"/>
<path d="M2872 70 c0 -19 2 -27 5 -17 2 9 2 25 0 35 -3 9 -5 1 -5 -18z"/>
<path d="M2060 71 c0 -11 4 -22 9 -25 4 -3 6 6 3 19 -5 30 -12 33 -12 6z"/>
<path d="M2750 71 c0 -11 4 -22 9 -25 4 -3 6 6 3 19 -5 30 -12 33 -12 6z"/>
<path d="M122 60 c0 -14 2 -19 5 -12 2 6 2 18 0 25 -3 6 -5 1 -5 -13z"/>
<path d="M280 62 c6 -13 14 -21 18 -18 3 4 -2 14 -12 24 -18 16 -18 16 -6 -6z"/>
<path d="M442 55 c0 -16 2 -22 5 -12 2 9 2 23 0 30 -3 6 -5 -1 -5 -18z"/>
<path d="M502 55 c0 -16 2 -22 5 -12 2 9 2 23 0 30 -3 6 -5 -1 -5 -18z"/>
<path d="M562 55 c0 -16 2 -22 5 -12 2 9 2 23 0 30 -3 6 -5 -1 -5 -18z"/>
<path d="M655 60 c10 -11 20 -20 23 -20 3 0 -3 9 -13 20 -10 11 -20 20 -23 20
-3 0 3 -9 13 -20z"/>
<path d="M692 55 c0 -16 2 -22 5 -12 2 9 2 23 0 30 -3 6 -5 -1 -5 -18z"/>
<path d="M722 55 c0 -16 2 -22 5 -12 2 9 2 23 0 30 -3 6 -5 -1 -5 -18z"/>
<path d="M2908 73 c7 -3 16 -2 19 1 4 3 -2 6 -13 5 -11 0 -14 -3 -6 -6z"/>
<path d="M20 66 c0 -2 8 -10 18 -17 15 -13 16 -12 3 4 -13 16 -21 21 -21 13z"/>
<path d="M180 61 c0 -6 4 -13 10 -16 6 -3 7 1 4 9 -7 18 -14 21 -14 7z"/>
<path d="M231 54 c0 -11 3 -14 6 -6 3 7 2 16 -1 19 -3 4 -6 -2 -5 -13z"/>
<path d="M351 54 c0 -11 3 -14 6 -6 3 7 2 16 -1 19 -3 4 -6 -2 -5 -13z"/>
<path d="M396 57 c3 -10 9 -15 12 -12 3 3 0 11 -7 18 -10 9 -11 8 -5 -6z"/>
<path d="M531 54 c0 -11 3 -14 6 -6 3 7 2 16 -1 19 -3 4 -6 -2 -5 -13z"/>
<path d="M600 65 c0 -5 5 -17 10 -25 5 -8 10 -10 10 -5 0 6 -5 17 -10 25 -5 8
-10 11 -10 5z"/>
</g>
</svg>
